# xmcd CD database file
#
# Track frame offsets:
#	150
#	30800
#	56151
#	80853
#	103904
#	133130
#	157798
#	181138
#	204769
#	226378
#	250113
#	272805
#
# Disc length: 3909 seconds
#
# Revision: 1
# Processed by: cddbd v1.5.1PL0 Copyright (c) Steve Scherf et al.
# Submitted via: CDex 1.40Beta9
#
DISCID=990f430c
DTITLE=John Irving - The Fourth Hand
DYEAR=2001
DGENRE=General Books
TTITLE0=Fourth Hand 9a
TTITLE1=Fourth Hand 9b
TTITLE2=Fourth Hand 9c
TTITLE3=Fourth Hand 9d
TTITLE4=Fourth Hand 9e
TTITLE5=Fourth Hand 9f
TTITLE6=Fourth Hand 9g
TTITLE7=Fourth Hand 9h
TTITLE8=Fourth Hand 9i
TTITLE9=Fourth Hand 9j
TTITLE10=Fourth Hand 9k
TTITLE11=Fourth Hand 9l
EXTD=YEAR: 2001
EXTT0=
EXTT1=
EXTT2=
EXTT3=
EXTT4=
EXTT5=
EXTT6=
EXTT7=
EXTT8=
EXTT9=
EXTT10=
EXTT11=
PLAYORDER=
